<svg id="Capa_1" enable-background="new 0 0 512 512" height="512" viewBox="0 0 512 512" width="512" xmlns="http://www.w3.org/2000/svg"><g><path d="m497 0h-482c-8.284 0-15 6.716-15 15v350c0 8.284 6.716 15 15 15h482c8.284 0 15-6.716 15-15v-350c0-8.284-6.716-15-15-15z" fill="#fff5f5"/><path d="m497 0h-241v380h241c8.284 0 15-6.716 15-15v-350c0-8.284-6.716-15-15-15z" fill="#d7d4eb"/><path d="m76 320h362c8.284 0 15-6.716 15-15v-230c0-8.284-6.716-15-15-15h-362c-8.284 0-15 6.716-15 15v230c0 8.284 6.716 15 15 15z" fill="#44ffe8"/><path d="m453 305v-230c0-8.284-6.716-15-15-15h-182v260h182c8.284 0 15-6.716 15-15z" fill="#00d7df"/><path d="m349.988 197.369-32.5-56.292c-8.284-14.349-26.632-19.265-40.981-10.981-14.349 8.284-19.265 26.632-10.981 40.981l32.5 56.292c4.142 7.174 13.316 9.633 20.49 5.49l25.981-15c7.175-4.141 9.633-13.315 5.491-20.49z" fill="#fff79f"/><path d="m318.517 232.86 12.99-7.5-55-95.263c-14.349 8.284-19.265 26.632-10.981 40.981l32.5 56.292c4.143 7.174 13.317 9.632 20.491 5.49z" fill="#ffde55"/><path d="m478.517 509.988 25.98-15c7.174-4.142 9.633-13.316 5.49-20.49l-160-277.128-51.961 30 160 277.128c4.143 7.174 13.317 9.632 20.491 5.49z" fill="#5f55af"/><path d="m458.027 504.497c4.142 7.174 13.316 9.633 20.49 5.49l12.99-7.5-167.5-290.119-25.981 15z" fill="#453d83"/></g></svg>